<svg xmlns="http://www.w3.org/2000/svg" xmlns:xlink="http://www.w3.org/1999/xlink" width="40" zoomAndPan="magnify" viewBox="0 0 30 30.000001" height="40" preserveAspectRatio="xMidYMid meet" version="1.0"><defs><clipPath id="98d752aed5"><path d="M 0.484375 0.394531 L 29.515625 0.394531 L 29.515625 28.703125 L 0.484375 28.703125 Z M 0.484375 0.394531 " clip-rule="nonzero"/></clipPath></defs><g clip-path="url(#98d752aed5)"><path fill="#0db75f" d="M 26.652344 0.394531 L 14.15625 0.394531 C 12.429688 0.851562 11.371094 1.898438 11.253906 3.800781 C 11.265625 4.167969 11.277344 4.535156 11.289062 4.898438 C 11.289062 5.566406 11.285156 6.1875 11.289062 6.816406 C 11.289062 7.78125 11.28125 8.75 11.285156 9.714844 L 3.339844 9.714844 C 2.644531 9.859375 2.039062 10.175781 1.527344 10.664062 C 1.011719 11.152344 0.667969 11.742188 0.488281 12.429688 L 0.488281 20.574219 C 0.535156 20.996094 0.675781 21.386719 0.910156 21.742188 C 1.25 22.214844 1.695312 22.558594 2.238281 22.769531 C 2.761719 23.019531 3.3125 23.148438 3.894531 23.152344 L 4.804688 23.152344 L 4.804688 25.742188 C 4.828125 26.703125 4.855469 27.667969 4.878906 28.632812 C 5.34375 28.191406 5.742188 27.808594 6.050781 27.503906 C 7.027344 26.546875 7.503906 26.058594 8.097656 25.429688 C 8.597656 24.902344 8.621094 24.871094 8.855469 24.625 C 9.933594 23.5 10.21875 23.363281 10.363281 23.304688 C 10.660156 23.179688 10.964844 23.125 11.285156 23.136719 C 12.617188 23.1875 13.953125 23.160156 15.289062 23.152344 C 15.515625 23.160156 15.738281 23.148438 15.964844 23.109375 C 16.1875 23.074219 16.40625 23.011719 16.617188 22.929688 C 16.828125 22.847656 17.03125 22.746094 17.222656 22.621094 C 17.410156 22.496094 17.585938 22.351562 17.746094 22.191406 C 17.90625 22.03125 18.050781 21.855469 18.171875 21.664062 C 18.296875 21.472656 18.398438 21.273438 18.480469 21.0625 C 18.5625 20.847656 18.621094 20.628906 18.660156 20.40625 C 18.695312 20.183594 18.707031 19.957031 18.699219 19.730469 C 18.710938 18.53125 18.703125 17.332031 18.703125 16.132812 L 18.703125 14.21875 L 18.714844 13.816406 C 19.03125 13.804688 19.335938 13.863281 19.628906 13.988281 C 19.769531 14.046875 20.054688 14.175781 21.132812 15.308594 C 21.367188 15.550781 21.394531 15.582031 21.890625 16.109375 C 22.488281 16.742188 22.964844 17.230469 23.941406 18.1875 C 24.246094 18.488281 24.644531 18.875 25.113281 19.316406 C 25.136719 18.351562 25.160156 17.386719 25.183594 16.425781 L 25.183594 13.832031 L 26.097656 13.832031 C 26.675781 13.828125 27.226562 13.703125 27.75 13.453125 C 28.292969 13.242188 28.738281 12.898438 29.078125 12.421875 C 29.316406 12.066406 29.457031 11.675781 29.503906 11.25 L 29.503906 3.109375 C 29.324219 2.421875 28.976562 1.835938 28.464844 1.347656 C 27.949219 0.859375 27.347656 0.542969 26.652344 0.394531 Z M 17.609375 19.730469 C 17.632812 20.046875 17.589844 20.351562 17.480469 20.648438 C 17.367188 20.945312 17.199219 21.203125 16.976562 21.429688 C 16.753906 21.652344 16.492188 21.820312 16.199219 21.929688 C 15.902344 22.042969 15.59375 22.085938 15.28125 22.066406 C 13.738281 22.078125 12.203125 22.085938 10.664062 22.058594 C 10.1875 22.03125 9.792969 22.195312 9.472656 22.554688 C 8.90625 23.136719 8.277344 23.660156 7.757812 24.285156 C 7.171875 24.992188 6.523438 25.640625 5.820312 26.226562 C 5.832031 25.921875 5.875 24.472656 5.894531 22.886719 C 5.921875 22.636719 5.851562 22.417969 5.691406 22.226562 C 5.511719 22.089844 5.3125 22.035156 5.089844 22.066406 C 4.683594 22.082031 4.277344 22.074219 3.871094 22.066406 C 3.558594 22.078125 3.261719 22.027344 2.972656 21.914062 C 2.683594 21.800781 2.429688 21.632812 2.210938 21.410156 C 1.992188 21.191406 1.828125 20.933594 1.71875 20.644531 C 1.609375 20.355469 1.5625 20.054688 1.578125 19.746094 C 1.566406 17.554688 1.566406 15.363281 1.578125 13.167969 C 1.558594 12.859375 1.605469 12.558594 1.714844 12.265625 C 1.820312 11.972656 1.984375 11.71875 2.203125 11.496094 C 2.417969 11.273438 2.671875 11.101562 2.960938 10.988281 C 3.246094 10.871094 3.546875 10.816406 3.859375 10.828125 C 6.34375 10.816406 8.828125 10.8125 11.3125 10.816406 C 11.351562 11.375 11.527344 11.890625 11.835938 12.359375 C 12.140625 12.828125 12.542969 13.191406 13.042969 13.453125 C 13.566406 13.710938 14.117188 13.835938 14.699219 13.832031 C 15.140625 13.835938 15.582031 13.839844 16.023438 13.839844 C 16.550781 13.847656 17.082031 13.847656 17.609375 13.839844 C 17.621094 15.804688 17.621094 17.765625 17.609375 19.730469 Z M 28.414062 10.425781 C 28.429688 10.738281 28.382812 11.039062 28.273438 11.328125 C 28.160156 11.617188 27.996094 11.875 27.777344 12.09375 C 27.558594 12.316406 27.304688 12.480469 27.015625 12.59375 C 26.726562 12.710938 26.429688 12.757812 26.117188 12.746094 C 25.710938 12.753906 25.304688 12.761719 24.898438 12.746094 C 24.675781 12.714844 24.476562 12.769531 24.300781 12.910156 C 24.136719 13.097656 24.070312 13.320312 24.09375 13.570312 C 24.113281 15.152344 24.160156 16.597656 24.167969 16.910156 C 23.464844 16.320312 22.820312 15.671875 22.230469 14.96875 C 21.714844 14.34375 21.082031 13.816406 20.519531 13.234375 C 20.199219 12.878906 19.800781 12.710938 19.324219 12.738281 C 19.117188 12.742188 18.90625 12.746094 18.699219 12.746094 C 18.324219 12.75 17.953125 12.753906 17.578125 12.753906 C 16.621094 12.757812 15.664062 12.75 14.707031 12.746094 C 13.425781 12.734375 12.566406 12.011719 12.410156 10.816406 C 12.386719 10.683594 12.378906 10.546875 12.378906 10.410156 L 12.378906 9.714844 C 12.371094 7.753906 12.363281 5.792969 12.378906 3.832031 C 12.359375 3.519531 12.402344 3.21875 12.511719 2.925781 C 12.621094 2.636719 12.785156 2.378906 13.003906 2.160156 C 13.21875 1.9375 13.476562 1.769531 13.765625 1.65625 C 14.054688 1.542969 14.355469 1.496094 14.664062 1.511719 C 18.484375 1.492188 22.308594 1.492188 26.132812 1.511719 C 26.445312 1.5 26.746094 1.554688 27.03125 1.667969 C 27.320312 1.785156 27.574219 1.953125 27.789062 2.175781 C 28.007812 2.398438 28.171875 2.65625 28.277344 2.949219 C 28.386719 3.238281 28.433594 3.539062 28.414062 3.851562 C 28.425781 6.042969 28.425781 8.234375 28.414062 10.425781 Z M 26.058594 5.710938 L 14.898438 5.710938 C 14.734375 5.710938 14.59375 5.652344 14.480469 5.535156 C 14.363281 5.421875 14.308594 5.28125 14.308594 5.117188 C 14.308594 4.957031 14.363281 4.816406 14.480469 4.699219 C 14.59375 4.585938 14.734375 4.527344 14.898438 4.527344 L 26.058594 4.527344 C 26.222656 4.527344 26.359375 4.585938 26.476562 4.699219 C 26.589844 4.816406 26.648438 4.957031 26.648438 5.117188 C 26.648438 5.28125 26.589844 5.421875 26.476562 5.535156 C 26.359375 5.652344 26.222656 5.710938 26.058594 5.710938 Z M 22.074219 8.839844 L 15.238281 8.839844 C 15.078125 8.839844 14.9375 8.785156 14.820312 8.667969 C 14.707031 8.550781 14.648438 8.414062 14.648438 8.25 C 14.648438 8.085938 14.707031 7.949219 14.820312 7.832031 C 14.9375 7.71875 15.078125 7.660156 15.238281 7.660156 L 22.074219 7.660156 C 22.234375 7.660156 22.375 7.71875 22.492188 7.832031 C 22.605469 7.949219 22.664062 8.085938 22.664062 8.25 C 22.664062 8.414062 22.605469 8.550781 22.492188 8.667969 C 22.375 8.785156 22.234375 8.839844 22.074219 8.839844 Z M 15.089844 18.574219 L 3.929688 18.574219 C 3.769531 18.574219 3.628906 18.515625 3.511719 18.398438 C 3.398438 18.285156 3.339844 18.144531 3.339844 17.980469 C 3.339844 17.820312 3.398438 17.679688 3.511719 17.5625 C 3.628906 17.449219 3.769531 17.390625 3.929688 17.390625 L 15.089844 17.390625 C 15.253906 17.390625 15.394531 17.449219 15.507812 17.5625 C 15.625 17.679688 15.683594 17.820312 15.683594 17.980469 C 15.683594 18.144531 15.625 18.285156 15.507812 18.398438 C 15.394531 18.515625 15.253906 18.574219 15.089844 18.574219 Z M 3.980469 14.21875 L 10.8125 14.21875 C 10.976562 14.21875 11.113281 14.277344 11.230469 14.394531 C 11.34375 14.507812 11.402344 14.648438 11.402344 14.808594 C 11.402344 14.972656 11.34375 15.113281 11.230469 15.226562 C 11.113281 15.34375 10.976562 15.402344 10.8125 15.402344 L 3.980469 15.402344 C 3.816406 15.402344 3.675781 15.34375 3.5625 15.226562 C 3.445312 15.113281 3.386719 14.972656 3.386719 14.808594 C 3.386719 14.648438 3.445312 14.507812 3.5625 14.394531 C 3.675781 14.277344 3.816406 14.21875 3.980469 14.21875 Z M 3.980469 14.21875 " fill-opacity="1" fill-rule="nonzero"/></g></svg>