<svg xmlns="http://www.w3.org/2000/svg" xmlns:xlink="http://www.w3.org/1999/xlink" width="40" zoomAndPan="magnify" viewBox="0 0 30 30.000001" height="40" preserveAspectRatio="xMidYMid meet" version="1.0"><defs><clipPath id="be7acc9153"><path d="M 24 13 L 28.933594 13 L 28.933594 15 L 24 15 Z M 24 13 " clip-rule="nonzero"/></clipPath><clipPath id="f480ea06b9"><path d="M 1.355469 12 L 6 12 L 6 14 L 1.355469 14 Z M 1.355469 12 " clip-rule="nonzero"/></clipPath><clipPath id="272012b68a"><path d="M 12 28 L 16 28 L 16 29.03125 L 12 29.03125 Z M 12 28 " clip-rule="nonzero"/></clipPath></defs><path fill="#0db75f" d="M 15.574219 3.824219 L 15.621094 3.820312 L 16.101562 0.753906 C 16.140625 0.503906 16.035156 0.242188 15.816406 0.109375 C 15.710938 0.0429688 15.585938 0.0078125 15.453125 0.0117188 C 15.320312 0.015625 15.199219 0.0625 15.097656 0.136719 C 14.890625 0.285156 14.804688 0.554688 14.863281 0.800781 L 15.574219 3.824219 " fill-opacity="1" fill-rule="nonzero"/><path fill="#0db75f" d="M 22.390625 3.03125 C 22.550781 2.832031 22.585938 2.554688 22.464844 2.328125 C 22.40625 2.21875 22.316406 2.125 22.199219 2.0625 C 22.082031 2 21.953125 1.980469 21.832031 1.992188 C 21.574219 2.019531 21.367188 2.207031 21.292969 2.453125 L 20.398438 5.425781 L 20.441406 5.449219 L 22.390625 3.03125 " fill-opacity="1" fill-rule="nonzero"/><path fill="#0db75f" d="M 27.113281 7.578125 C 27.121094 7.453125 27.085938 7.328125 27.015625 7.214844 C 26.945312 7.101562 26.84375 7.019531 26.730469 6.96875 C 26.496094 6.863281 26.222656 6.921875 26.035156 7.097656 L 23.773438 9.226562 L 23.800781 9.265625 L 26.695312 8.148438 C 26.933594 8.054688 27.105469 7.832031 27.113281 7.578125 " fill-opacity="1" fill-rule="nonzero"/><g clip-path="url(#be7acc9153)"><path fill="#0db75f" d="M 28.613281 14.082031 C 28.605469 13.949219 28.5625 13.828125 28.488281 13.726562 C 28.339844 13.519531 28.070312 13.433594 27.820312 13.492188 L 24.800781 14.203125 L 24.800781 14.25 L 27.867188 14.730469 C 28.121094 14.769531 28.382812 14.664062 28.515625 14.445312 C 28.582031 14.339844 28.617188 14.214844 28.613281 14.082031 " fill-opacity="1" fill-rule="nonzero"/></g><g clip-path="url(#f480ea06b9)"><path fill="#0db75f" d="M 2.125 12.523438 C 1.875 12.484375 1.613281 12.589844 1.480469 12.808594 C 1.414062 12.910156 1.378906 13.039062 1.382812 13.171875 C 1.386719 13.304688 1.433594 13.425781 1.507812 13.527344 C 1.65625 13.730469 1.925781 13.820312 2.175781 13.761719 L 5.195312 13.050781 L 5.195312 13 L 2.125 12.523438 " fill-opacity="1" fill-rule="nonzero"/></g><path fill="#0db75f" d="M 3.699219 6.15625 C 3.589844 6.214844 3.496094 6.304688 3.433594 6.425781 C 3.371094 6.542969 3.351562 6.671875 3.363281 6.792969 C 3.390625 7.046875 3.578125 7.257812 3.824219 7.332031 L 6.796875 8.226562 L 6.820312 8.183594 L 4.402344 6.234375 C 4.203125 6.074219 3.925781 6.039062 3.699219 6.15625 " fill-opacity="1" fill-rule="nonzero"/><path fill="#0db75f" d="M 10.597656 4.847656 L 10.636719 4.824219 L 9.519531 1.925781 C 9.425781 1.6875 9.203125 1.519531 8.949219 1.507812 C 8.824219 1.503906 8.699219 1.539062 8.585938 1.609375 C 8.472656 1.679688 8.390625 1.78125 8.339844 1.894531 C 8.234375 2.125 8.292969 2.402344 8.46875 2.585938 L 10.597656 4.847656 " fill-opacity="1" fill-rule="nonzero"/><path fill="#0db75f" d="M 17.28125 24.742188 C 17.253906 24.742188 17.21875 24.75 17.171875 24.761719 L 16.289062 25.011719 C 14.664062 25.476562 12.984375 25.953125 11.328125 26.414062 C 11.109375 26.472656 11.097656 26.574219 11.089844 26.800781 C 11.089844 26.839844 11.085938 26.882812 11.085938 26.925781 C 11.085938 27.523438 11.25 27.574219 11.4375 27.574219 C 11.53125 27.574219 11.644531 27.554688 11.789062 27.515625 C 13.492188 27.035156 15.195312 26.554688 16.898438 26.074219 C 17.128906 26.007812 17.320312 25.835938 17.417969 25.601562 C 17.527344 25.347656 17.515625 25.066406 17.390625 24.828125 C 17.34375 24.742188 17.308594 24.742188 17.28125 24.742188 " fill-opacity="1" fill-rule="nonzero"/><path fill="#0db75f" d="M 11.085938 25.21875 C 11.089844 25.847656 11.203125 25.851562 11.320312 25.851562 C 11.320312 25.851562 11.320312 25.851562 11.324219 25.851562 C 11.40625 25.851562 11.519531 25.828125 11.675781 25.785156 C 12.226562 25.628906 12.773438 25.476562 13.324219 25.320312 C 14.53125 24.976562 15.78125 24.625 17.011719 24.285156 C 17.308594 24.199219 17.40625 24.121094 17.425781 23.945312 L 17.429688 23.890625 C 17.46875 23.550781 17.503906 23.261719 17.292969 23.007812 C 17.261719 22.972656 17.242188 22.96875 17.222656 22.96875 C 17.1875 22.96875 17.140625 22.984375 17.085938 22.996094 L 17.066406 23.003906 C 15.488281 23.453125 13.527344 24.007812 11.640625 24.535156 C 10.996094 24.714844 11.0625 25.074219 11.085938 25.191406 L 11.085938 25.21875 " fill-opacity="1" fill-rule="nonzero"/><path fill="#0db75f" d="M 13.347656 27.613281 C 13.835938 27.636719 14.476562 27.640625 14.980469 27.640625 C 15.316406 27.640625 15.652344 27.636719 15.945312 27.636719 C 16.175781 27.632812 16.382812 27.632812 16.558594 27.632812 C 16.992188 27.632812 17.273438 27.539062 17.398438 27.355469 C 17.519531 27.175781 17.507812 26.878906 17.363281 26.476562 L 13.347656 27.613281 " fill-opacity="1" fill-rule="nonzero"/><path fill="#0db75f" d="M 11.601562 22.90625 L 11.476562 22.90625 C 11.246094 22.90625 11.167969 23.082031 11.140625 23.183594 C 11.066406 23.472656 11.019531 23.804688 11.195312 24.125 L 15.328125 22.957031 C 14.296875 22.929688 12.660156 22.90625 11.601562 22.90625 " fill-opacity="1" fill-rule="nonzero"/><g clip-path="url(#272012b68a)"><path fill="#0db75f" d="M 12.609375 28.125 C 12.597656 28.394531 12.664062 28.617188 12.800781 28.769531 C 12.941406 28.929688 13.164062 29.019531 13.445312 29.03125 C 13.566406 29.035156 13.886719 29.039062 14.261719 29.039062 C 14.632812 29.039062 14.957031 29.035156 15.078125 29.03125 C 15.359375 29.019531 15.582031 28.929688 15.722656 28.769531 C 15.859375 28.617188 15.925781 28.394531 15.910156 28.125 L 12.609375 28.125 " fill-opacity="1" fill-rule="nonzero"/></g><path fill="#0db75f" d="M 22.175781 14.078125 C 22.050781 14.472656 21.703125 14.769531 21.226562 14.894531 C 20.921875 14.199219 20.710938 13.925781 20.371094 13.777344 C 20.0625 13.644531 19.839844 13.695312 19.714844 13.929688 C 19.59375 14.15625 19.664062 14.367188 19.914062 14.519531 C 20.140625 14.664062 20.269531 14.824219 20.292969 14.996094 C 20.320312 15.171875 20.238281 15.367188 20.054688 15.570312 C 19.773438 15.886719 19.867188 16.109375 19.996094 16.242188 C 20.09375 16.34375 20.199219 16.390625 20.308594 16.386719 C 20.480469 16.382812 20.621094 16.261719 20.710938 16.160156 C 20.921875 15.910156 21.105469 15.777344 21.382812 15.832031 C 21.472656 16.65625 21.101562 17.28125 20.316406 17.648438 C 20.253906 17.625 20.234375 17.578125 20.210938 17.5 C 20.199219 17.464844 20.1875 17.425781 20.164062 17.394531 C 20 17.128906 19.808594 17.054688 19.585938 17.167969 C 19.3125 17.308594 19.328125 17.558594 19.375 17.761719 C 19.53125 18.476562 19.445312 19.015625 19.128906 19.316406 C 18.816406 19.617188 18.28125 19.679688 17.585938 19.496094 C 17.378906 19.441406 17.128906 19.414062 17 19.695312 C 16.882812 19.945312 16.96875 20.144531 17.265625 20.308594 C 17.335938 20.351562 17.417969 20.375 17.496094 20.394531 C 17.617188 20.425781 17.726562 20.457031 17.8125 20.550781 C 17.808594 20.609375 17.808594 20.667969 17.808594 20.726562 C 17.8125 20.90625 17.8125 21.078125 17.726562 21.234375 L 15.753906 21.234375 L 15.753906 18.296875 C 15.785156 18.316406 15.816406 18.335938 15.84375 18.355469 C 15.914062 18.394531 15.96875 18.429688 16.019531 18.46875 C 16.058594 18.5 16.101562 18.535156 16.148438 18.574219 C 16.316406 18.714844 16.507812 18.871094 16.710938 18.847656 C 16.824219 18.835938 16.921875 18.769531 17.015625 18.644531 C 17.113281 18.515625 17.148438 18.402344 17.128906 18.292969 C 17.09375 18.113281 16.90625 18.003906 16.730469 17.894531 C 16.664062 17.855469 16.597656 17.816406 16.546875 17.777344 C 15.71875 17.148438 15.578125 16.476562 16.085938 15.527344 C 16.21875 15.277344 16.183594 15.066406 15.992188 14.957031 C 15.621094 14.753906 15.664062 14.464844 15.707031 14.160156 C 15.726562 14.015625 15.75 13.867188 15.726562 13.730469 C 15.679688 13.464844 15.71875 13.253906 15.835938 13.101562 C 15.960938 12.9375 16.179688 12.835938 16.488281 12.804688 C 16.605469 12.792969 16.703125 12.746094 16.765625 12.664062 C 16.832031 12.582031 16.859375 12.472656 16.84375 12.351562 C 16.8125 12.113281 16.652344 11.972656 16.40625 11.972656 C 16.246094 11.972656 16.097656 11.984375 15.921875 12 C 15.855469 12.003906 15.785156 12.011719 15.710938 12.019531 C 15.734375 11.757812 15.722656 11.496094 15.714844 11.242188 C 15.691406 10.679688 15.671875 10.152344 15.964844 9.644531 C 16.027344 9.539062 16.058594 9.382812 15.964844 9.269531 C 15.605469 8.832031 15.660156 8.332031 15.714844 7.847656 C 15.730469 7.679688 15.75 7.507812 15.753906 7.339844 C 15.757812 6.875 16.058594 6.511719 16.5625 6.363281 C 17.078125 6.214844 17.488281 6.320312 17.8125 6.691406 C 17.722656 6.75 17.632812 6.800781 17.542969 6.851562 C 17.292969 6.996094 17.054688 7.132812 16.882812 7.371094 C 16.738281 7.578125 16.746094 7.78125 16.90625 7.949219 C 17.074219 8.125 17.277344 8.136719 17.480469 7.984375 C 17.53125 7.945312 17.578125 7.90625 17.625 7.863281 C 17.675781 7.816406 17.734375 7.765625 17.792969 7.722656 C 18.429688 7.28125 19.363281 7.382812 19.871094 7.945312 C 20.402344 8.53125 20.414062 9.351562 19.902344 9.996094 C 19.382812 9.582031 18.890625 9.425781 18.359375 9.515625 L 18.347656 9.519531 C 18.054688 9.566406 17.691406 9.628906 17.722656 10.042969 C 17.734375 10.183594 17.777344 10.277344 17.851562 10.339844 C 17.980469 10.445312 18.179688 10.425781 18.371094 10.40625 L 18.4375 10.398438 C 18.796875 10.363281 19.117188 10.472656 19.324219 10.699219 C 19.507812 10.902344 19.574219 11.167969 19.519531 11.457031 C 19.496094 11.558594 19.453125 11.65625 19.410156 11.753906 C 19.398438 11.78125 19.390625 11.804688 19.378906 11.832031 C 19.246094 12.132812 19.316406 12.359375 19.566406 12.476562 C 19.886719 12.621094 20.066406 12.378906 20.179688 12.1875 C 20.375 11.839844 20.445312 11.566406 20.40625 11.328125 C 20.328125 10.894531 20.511719 10.640625 20.839844 10.371094 C 21.035156 10.503906 21.164062 10.6875 21.25 10.953125 C 21.441406 11.558594 21.347656 12.097656 20.96875 12.5625 C 20.78125 12.789062 20.78125 13.011719 20.96875 13.1875 C 21.179688 13.382812 21.410156 13.363281 21.636719 13.125 C 21.6875 13.070312 21.738281 13.007812 21.796875 12.941406 C 21.820312 12.914062 21.847656 12.882812 21.875 12.851562 C 22.191406 13.238281 22.304688 13.683594 22.175781 14.078125 Z M 13.351562 21.238281 L 12.210938 21.238281 C 11.804688 21.234375 11.089844 21.230469 10.808594 21.21875 C 10.804688 21.1875 10.800781 21.152344 10.796875 21.121094 C 10.785156 21.039062 10.773438 20.964844 10.765625 20.890625 C 10.585938 19.164062 10.046875 17.753906 9.121094 16.574219 C 7.046875 13.929688 7.429688 10.199219 9.996094 8.078125 C 11.015625 7.230469 12.117188 6.808594 13.351562 6.78125 Z M 22.210938 11.527344 C 22.238281 10.792969 21.96875 10.171875 21.417969 9.691406 C 21.207031 9.503906 21.164062 9.320312 21.164062 9.066406 C 21.160156 7.820312 20.386719 6.859375 19.1875 6.617188 C 18.90625 6.558594 18.753906 6.429688 18.601562 6.246094 C 17.992188 5.492188 17.097656 5.234375 16.210938 5.550781 C 15.347656 5.859375 14.867188 6.578125 14.863281 7.578125 C 14.855469 9.203125 14.859375 10.859375 14.859375 12.460938 C 14.859375 13.125 14.859375 13.789062 14.859375 14.453125 L 14.859375 14.492188 L 14.867188 14.492188 L 14.867188 16.46875 C 14.867188 18.058594 14.867188 19.648438 14.867188 21.238281 L 14.261719 21.238281 C 14.261719 19.472656 14.261719 17.710938 14.261719 15.945312 L 14.261719 12.625 C 14.261719 10.664062 14.261719 8.699219 14.261719 6.738281 C 14.261719 6.304688 14.238281 6.078125 14.105469 5.953125 C 13.972656 5.828125 13.738281 5.824219 13.273438 5.855469 C 10.273438 6.039062 7.644531 8.335938 7.027344 11.316406 C 6.609375 13.328125 7.015625 15.195312 8.234375 16.863281 C 9.328125 18.367188 9.871094 19.871094 9.894531 21.46875 C 9.894531 21.476562 9.894531 21.496094 9.894531 21.519531 C 9.910156 21.875 10.199219 22.15625 10.558594 22.15625 L 17.988281 22.15625 C 18.167969 22.15625 18.332031 22.085938 18.457031 21.957031 C 18.582031 21.832031 18.648438 21.664062 18.648438 21.488281 C 18.628906 20.921875 18.671875 20.402344 19.390625 20.167969 C 19.769531 20.042969 20.09375 19.65625 20.210938 19.183594 C 20.324219 18.75 20.5625 18.539062 20.917969 18.34375 C 21.832031 17.84375 22.3125 16.980469 22.316406 15.851562 C 22.316406 15.539062 22.355469 15.328125 22.554688 15.097656 C 23.355469 14.179688 23.3125 13.007812 22.441406 12.109375 C 22.269531 11.929688 22.203125 11.765625 22.210938 11.527344 " fill-opacity="1" fill-rule="nonzero"/></svg>