<svg xmlns="http://www.w3.org/2000/svg" xmlns:xlink="http://www.w3.org/1999/xlink" width="64" zoomAndPan="magnify" viewBox="0 0 48 48" height="64" preserveAspectRatio="xMidYMid meet" version="1.0"><defs><clipPath id="72264f6a4e"><path d="M 0.488281 0 L 47.507812 0 L 47.507812 47 L 0.488281 47 Z M 0.488281 0 " clip-rule="nonzero"/></clipPath></defs><path fill="#ffffff" d="M 23.988281 12.21875 C 21.757812 12.21875 19.574219 12.878906 17.722656 14.121094 C 15.867188 15.359375 14.421875 17.121094 13.566406 19.179688 C 12.714844 21.242188 12.488281 23.511719 12.925781 25.699219 C 13.359375 27.886719 14.433594 29.894531 16.011719 31.472656 C 17.589844 33.050781 19.597656 34.125 21.785156 34.558594 C 23.976562 34.996094 26.242188 34.773438 28.304688 33.917969 C 30.363281 33.0625 32.125 31.617188 33.367188 29.765625 C 34.605469 27.910156 35.265625 25.726562 35.265625 23.496094 C 35.261719 20.507812 34.074219 17.640625 31.960938 15.527344 C 29.84375 13.410156 26.976562 12.222656 23.988281 12.21875 Z M 23.988281 31.015625 C 22.5 31.015625 21.046875 30.574219 19.808594 29.75 C 18.574219 28.921875 17.609375 27.75 17.039062 26.375 C 16.472656 25 16.324219 23.488281 16.613281 22.03125 C 16.902344 20.570312 17.617188 19.230469 18.671875 18.179688 C 19.722656 17.128906 21.0625 16.414062 22.519531 16.121094 C 23.980469 15.832031 25.492188 15.980469 26.863281 16.550781 C 28.238281 17.121094 29.414062 18.082031 30.238281 19.320312 C 31.066406 20.558594 31.507812 22.011719 31.507812 23.496094 C 31.503906 25.492188 30.710938 27.402344 29.300781 28.8125 C 27.890625 30.222656 25.980469 31.015625 23.988281 31.015625 Z M 23.988281 31.015625 " fill-opacity="1" fill-rule="nonzero"/><g clip-path="url(#72264f6a4e)"><path fill="#ffffff" d="M 34.328125 0 L 13.648438 0 C 10.160156 0.00390625 6.816406 1.390625 4.347656 3.859375 C 1.882812 6.324219 0.492188 9.671875 0.488281 13.160156 L 0.488281 33.835938 C 0.492188 37.324219 1.882812 40.671875 4.347656 43.136719 C 6.816406 45.605469 10.160156 46.992188 13.648438 46.996094 L 34.328125 46.996094 C 37.816406 46.992188 41.160156 45.605469 43.625 43.136719 C 46.09375 40.671875 47.480469 37.324219 47.484375 33.835938 L 47.484375 13.160156 C 47.480469 9.671875 46.09375 6.324219 43.625 3.859375 C 41.160156 1.390625 37.816406 0.00390625 34.328125 0 Z M 43.726562 33.835938 C 43.722656 36.328125 42.730469 38.71875 40.96875 40.480469 C 39.207031 42.242188 36.816406 43.234375 34.328125 43.234375 L 13.648438 43.234375 C 11.15625 43.234375 8.765625 42.242188 7.003906 40.480469 C 5.242188 38.71875 4.253906 36.328125 4.25 33.835938 L 4.25 13.160156 C 4.253906 10.667969 5.242188 8.277344 7.003906 6.515625 C 8.765625 4.753906 11.15625 3.761719 13.648438 3.757812 L 34.328125 3.757812 C 36.816406 3.761719 39.207031 4.753906 40.96875 6.515625 C 42.730469 8.277344 43.722656 10.667969 43.726562 13.160156 Z M 43.726562 33.835938 " fill-opacity="1" fill-rule="nonzero"/></g><path fill="#ffffff" d="M 36.207031 14.097656 C 37.761719 14.097656 39.027344 12.835938 39.027344 11.277344 C 39.027344 9.722656 37.761719 8.460938 36.207031 8.460938 C 34.648438 8.460938 33.386719 9.722656 33.386719 11.277344 C 33.386719 12.835938 34.648438 14.097656 36.207031 14.097656 Z M 36.207031 14.097656 " fill-opacity="1" fill-rule="nonzero"/></svg>