<svg width="64" height="64" viewBox="0 0 64 64" fill="none" xmlns="http://www.w3.org/2000/svg">
<g clip-path="url(#clip0_316_2)">
<mask id="mask0_316_2" style="mask-type:luminance" maskUnits="userSpaceOnUse" x="6" y="6" width="52" height="51">
<path d="M6.92188 6.27081H57.0781V56.4271H6.92188V6.27081Z" fill="white"/>
</mask>
<g mask="url(#mask0_316_2)">
<path d="M6.92188 6.27081H57.0781V56.4271H6.92188V6.27081Z" fill="white"/>
</g>
<mask id="mask1_316_2" style="mask-type:luminance" maskUnits="userSpaceOnUse" x="0" y="0" width="64" height="63">
<path d="M0.651123 0H63.3438V62.6927H0.651123V0Z" fill="white"/>
</mask>
<g mask="url(#mask1_316_2)">
<path d="M58.1095 0H5.92196C3.03654 0 0.713623 2.35417 0.713623 5.20833V57.4896C0.713623 60.375 3.06779 62.6927 5.92196 62.6927H58.0782C60.9636 62.6927 63.2865 60.3438 63.2865 57.4896V5.20833C63.3178 2.35417 60.9949 0 58.1095 0ZM19.2501 51.7188H10.0001V23.9271H19.2501V51.7188ZM14.6095 20.5729C11.6928 20.5729 9.33862 18.224 9.33862 15.3073C9.33862 12.3906 11.6928 10.0365 14.6095 10.0365C17.5261 10.0365 19.8803 12.3906 19.8803 15.3073C19.8803 18.224 17.5261 20.5729 14.6095 20.5729ZM54.0626 51.7188H44.7813L44.5626 35.2188C44.5626 35.2188 44.7813 30.8281 39.9845 30.8594C35.1824 30.8906 34.5261 35.2188 34.5261 35.2188V51.7188H25.1772V23.9271H34.1459V27.7552C34.1459 27.7552 34.5261 26.5 36.5938 25.026C38.6667 23.5521 42.0834 23.2396 43.5574 23.3021C45.0313 23.3646 47.0365 23.1146 50.3959 25.4375C54.0001 27.9115 54.0938 34.4063 54.0938 34.4063L54.0626 51.7188Z" fill="#0DB75F"/>
</g>
</g>
<defs>
<clipPath id="clip0_316_2">
<rect width="64" height="64" fill="white"/>
</clipPath>
</defs>
</svg>
