<svg xmlns="http://www.w3.org/2000/svg" xmlns:xlink="http://www.w3.org/1999/xlink" width="40" zoomAndPan="magnify" viewBox="0 0 30 30.000001" height="40" preserveAspectRatio="xMidYMid meet" version="1.0"><defs><clipPath id="12755bfbfe"><path d="M 15 0 L 29.515625 0 L 29.515625 29 L 15 29 Z M 15 0 " clip-rule="nonzero"/></clipPath><clipPath id="036642734f"><path d="M 0.484375 17 L 15 17 L 15 27 L 0.484375 27 Z M 0.484375 17 " clip-rule="nonzero"/></clipPath><clipPath id="f00fb76b9d"><path d="M 0.484375 10 L 16 10 L 16 15 L 0.484375 15 Z M 0.484375 10 " clip-rule="nonzero"/></clipPath><clipPath id="5fb8390b02"><path d="M 0.484375 3 L 15 3 L 15 7 L 0.484375 7 Z M 0.484375 3 " clip-rule="nonzero"/></clipPath></defs><path fill="#0db75f" d="M 22.542969 19.632812 C 21.261719 19.632812 20.21875 20.675781 20.21875 21.960938 C 20.21875 23.242188 21.261719 24.285156 22.542969 24.285156 C 23.828125 24.285156 24.871094 23.242188 24.871094 21.960938 C 24.871094 20.675781 23.828125 19.632812 22.542969 19.632812 Z M 22.542969 23.355469 C 21.773438 23.355469 21.148438 22.730469 21.148438 21.960938 C 21.148438 21.191406 21.773438 20.566406 22.542969 20.566406 C 23.3125 20.566406 23.941406 21.191406 23.941406 21.960938 C 23.941406 22.730469 23.3125 23.355469 22.542969 23.355469 Z M 22.542969 23.355469 " fill-opacity="1" fill-rule="nonzero"/><path fill="#0db75f" d="M 22.542969 17.773438 C 20.234375 17.773438 18.355469 19.652344 18.355469 21.960938 C 18.355469 24.269531 20.234375 26.148438 22.542969 26.148438 C 24.851562 26.148438 26.730469 24.269531 26.730469 21.960938 C 26.730469 19.652344 24.851562 17.773438 22.542969 17.773438 Z M 22.542969 25.21875 C 20.75 25.21875 19.285156 23.753906 19.285156 21.960938 C 19.285156 20.164062 20.75 18.703125 22.542969 18.703125 C 24.339844 18.703125 25.800781 20.164062 25.800781 21.960938 C 25.800781 23.753906 24.339844 25.21875 22.542969 25.21875 Z M 22.542969 25.21875 " fill-opacity="1" fill-rule="nonzero"/><g clip-path="url(#12755bfbfe)"><path fill="#0db75f" d="M 28.125 19.644531 C 27.949219 19.21875 27.964844 18.734375 28.175781 18.320312 L 28.375 17.921875 L 26.730469 16.277344 L 26.730469 13.714844 L 28.5 10.769531 C 29.167969 9.652344 29.523438 8.375 29.523438 7.070312 C 29.523438 3.222656 26.390625 0.09375 22.542969 0.09375 C 18.695312 0.09375 15.566406 3.222656 15.566406 7.070312 C 15.566406 8.375 15.917969 9.652344 16.589844 10.769531 L 18.355469 13.714844 L 18.355469 16.277344 L 16.714844 17.921875 L 16.910156 18.316406 C 17.121094 18.730469 17.136719 19.21875 16.960938 19.652344 C 16.78125 20.078125 16.429688 20.40625 15.992188 20.550781 L 15.566406 20.695312 L 15.566406 23.226562 L 15.988281 23.367188 C 16.429688 23.515625 16.78125 23.84375 16.960938 24.273438 C 17.140625 24.703125 17.121094 25.1875 16.914062 25.601562 L 16.714844 26 L 18.503906 27.789062 L 18.898438 27.59375 C 19.316406 27.382812 19.804688 27.367188 20.234375 27.546875 C 20.664062 27.722656 20.992188 28.074219 21.136719 28.511719 L 21.277344 28.9375 L 23.808594 28.9375 L 23.949219 28.519531 C 24.097656 28.078125 24.425781 27.722656 24.859375 27.542969 C 25.285156 27.367188 25.769531 27.382812 26.183594 27.59375 L 26.585938 27.789062 L 28.375 26 L 28.175781 25.601562 C 27.96875 25.1875 27.949219 24.703125 28.125 24.273438 C 28.304688 23.84375 28.660156 23.515625 29.101562 23.367188 L 29.523438 23.226562 L 29.523438 20.695312 L 29.101562 20.554688 C 28.660156 20.40625 28.304688 20.074219 28.125 19.644531 Z M 19.285156 15.910156 L 20.847656 15.910156 C 20.683594 16.113281 20.476562 16.273438 20.230469 16.375 C 19.929688 16.5 19.601562 16.523438 19.285156 16.457031 Z M 19.285156 14.980469 L 19.285156 14.050781 L 25.800781 14.050781 L 25.800781 14.980469 Z M 20.21875 6.570312 C 20.066406 6.59375 19.910156 6.605469 19.753906 6.605469 C 19.496094 6.605469 19.285156 6.398438 19.285156 6.140625 C 19.285156 5.882812 19.496094 5.675781 19.753906 5.675781 C 20.007812 5.675781 20.21875 5.882812 20.21875 6.140625 Z M 23.941406 13.121094 L 23.007812 13.121094 L 23.007812 6.746094 C 23.296875 6.96875 23.605469 7.148438 23.941406 7.277344 Z M 22.078125 13.121094 L 21.148438 13.121094 L 21.148438 7.277344 C 21.480469 7.144531 21.792969 6.964844 22.078125 6.746094 Z M 25.800781 15.910156 L 25.800781 16.457031 C 25.488281 16.523438 25.160156 16.5 24.855469 16.375 C 24.613281 16.273438 24.40625 16.113281 24.238281 15.910156 Z M 17.386719 10.289062 C 16.804688 9.316406 16.496094 8.207031 16.496094 7.070312 C 16.496094 3.738281 19.207031 1.023438 22.542969 1.023438 C 25.878906 1.023438 28.59375 3.738281 28.59375 7.070312 C 28.59375 8.207031 28.285156 9.316406 27.699219 10.289062 L 26.003906 13.121094 L 24.871094 13.121094 L 24.871094 7.507812 C 25.023438 7.527344 25.179688 7.539062 25.335938 7.539062 C 26.105469 7.539062 26.730469 6.910156 26.730469 6.140625 C 26.730469 5.371094 26.105469 4.746094 25.335938 4.746094 C 24.566406 4.746094 23.941406 5.371094 23.941406 6.140625 L 23.941406 6.25 C 23.699219 6.121094 23.480469 5.953125 23.28125 5.757812 L 22.542969 5.019531 L 21.804688 5.757812 C 21.609375 5.953125 21.386719 6.121094 21.148438 6.25 L 21.148438 6.140625 C 21.148438 5.371094 20.523438 4.746094 19.753906 4.746094 C 18.984375 4.746094 18.355469 5.371094 18.355469 6.140625 C 18.355469 6.910156 18.984375 7.539062 19.753906 7.539062 C 19.910156 7.539062 20.0625 7.527344 20.21875 7.507812 L 20.21875 13.121094 L 19.085938 13.121094 Z M 24.871094 6.570312 L 24.871094 6.140625 C 24.871094 5.882812 25.078125 5.675781 25.335938 5.675781 C 25.59375 5.675781 25.800781 5.882812 25.800781 6.140625 C 25.800781 6.398438 25.59375 6.605469 25.335938 6.605469 C 25.179688 6.605469 25.023438 6.59375 24.871094 6.570312 Z M 28.59375 22.566406 C 27.996094 22.828125 27.519531 23.308594 27.265625 23.917969 C 27.015625 24.523438 27.011719 25.203125 27.25 25.808594 L 26.390625 26.664062 C 25.785156 26.425781 25.109375 26.433594 24.5 26.683594 C 23.894531 26.9375 23.410156 27.410156 23.148438 28.007812 L 21.9375 28.007812 C 21.679688 27.414062 21.199219 26.9375 20.589844 26.6875 C 19.980469 26.433594 19.300781 26.429688 18.695312 26.664062 L 17.839844 25.808594 C 18.074219 25.203125 18.070312 24.523438 17.820312 23.917969 C 17.566406 23.308594 17.09375 22.828125 16.496094 22.566406 L 16.496094 21.355469 C 17.089844 21.09375 17.566406 20.613281 17.816406 20.007812 C 18.070312 19.398438 18.074219 18.71875 17.835938 18.113281 L 18.695312 17.253906 C 19.300781 17.492188 19.980469 17.488281 20.585938 17.238281 C 21.195312 16.984375 21.671875 16.507812 21.933594 15.910156 L 23.152344 15.910156 C 23.414062 16.507812 23.890625 16.984375 24.5 17.238281 C 25.109375 17.488281 25.785156 17.492188 26.390625 17.253906 L 27.25 18.113281 C 27.011719 18.71875 27.015625 19.394531 27.265625 20.003906 C 27.519531 20.609375 27.992188 21.09375 28.589844 21.355469 L 28.589844 22.566406 Z M 28.59375 22.566406 " fill-opacity="1" fill-rule="nonzero"/></g><g clip-path="url(#036642734f)"><path fill="#0db75f" d="M 14.859375 20.4375 L 14.460938 19.640625 C 13.882812 18.488281 12.726562 17.773438 11.4375 17.773438 C 10.378906 17.773438 9.371094 18.277344 8.734375 19.125 L 8.351562 19.632812 L 2.074219 19.632812 C 1.300781 19.632812 0.675781 20.261719 0.675781 21.03125 L 0.675781 22.890625 C 0.675781 23.660156 1.300781 24.285156 2.074219 24.285156 L 8.351562 24.285156 L 8.734375 24.796875 C 9.371094 25.640625 10.378906 26.148438 11.4375 26.148438 C 12.726562 26.148438 13.882812 25.433594 14.460938 24.28125 L 14.855469 23.484375 L 12.308594 22.972656 L 12.308594 20.945312 Z M 13.457031 24.152344 C 13.003906 24.816406 12.257812 25.21875 11.4375 25.21875 C 10.671875 25.21875 9.941406 24.851562 9.480469 24.238281 L 8.820312 23.355469 L 2.074219 23.355469 C 1.816406 23.355469 1.605469 23.148438 1.605469 22.890625 L 1.605469 21.03125 C 1.605469 20.773438 1.816406 20.566406 2.074219 20.566406 L 8.820312 20.566406 L 9.480469 19.683594 C 9.941406 19.070312 10.671875 18.703125 11.4375 18.703125 C 12.257812 18.703125 13.003906 19.105469 13.457031 19.765625 L 11.378906 20.183594 L 11.378906 23.738281 Z M 13.457031 24.152344 " fill-opacity="1" fill-rule="nonzero"/></g><path fill="#0db75f" d="M 15.566406 15.910156 L 7.382812 15.910156 L 7.984375 15.308594 L 7.328125 14.652344 L 5.601562 16.378906 L 7.328125 18.101562 L 7.984375 17.445312 L 7.382812 16.84375 L 15.566406 16.84375 Z M 15.566406 15.910156 " fill-opacity="1" fill-rule="nonzero"/><g clip-path="url(#f00fb76b9d)"><path fill="#0db75f" d="M 2.867188 13.722656 L 2.265625 13.121094 L 15.566406 13.121094 L 15.566406 12.191406 L 2.265625 12.191406 L 2.867188 11.589844 L 2.207031 10.929688 L 0.484375 12.65625 L 2.207031 14.378906 Z M 2.867188 13.722656 " fill-opacity="1" fill-rule="nonzero"/></g><path fill="#0db75f" d="M 14.632812 8.46875 L 7.382812 8.46875 L 7.984375 7.867188 L 7.328125 7.207031 L 5.601562 8.933594 L 7.328125 10.65625 L 7.984375 10 L 7.382812 9.398438 L 14.632812 9.398438 Z M 14.632812 8.46875 " fill-opacity="1" fill-rule="nonzero"/><g clip-path="url(#5fb8390b02)"><path fill="#0db75f" d="M 2.867188 6.277344 L 2.265625 5.675781 L 14.632812 5.675781 L 14.632812 4.746094 L 2.265625 4.746094 L 2.867188 4.144531 L 2.207031 3.484375 L 0.484375 5.210938 L 2.207031 6.9375 Z M 2.867188 6.277344 " fill-opacity="1" fill-rule="nonzero"/></g></svg>