<svg xmlns="http://www.w3.org/2000/svg" xmlns:xlink="http://www.w3.org/1999/xlink" width="40" zoomAndPan="magnify" viewBox="0 0 30 30.000001" height="40" preserveAspectRatio="xMidYMid meet" version="1.0"><defs><clipPath id="547afa2f34"><path d="M 21 11 L 29.515625 11 L 29.515625 20 L 21 20 Z M 21 11 " clip-rule="nonzero"/></clipPath><clipPath id="5f6c34586d"><path d="M 0.484375 16 L 11 16 L 11 29 L 0.484375 29 Z M 0.484375 16 " clip-rule="nonzero"/></clipPath></defs><path fill="#0db75f" d="M 19.867188 26.363281 C 19.726562 26.363281 19.605469 26.3125 19.503906 26.210938 L 14.429688 21.132812 C 14.332031 21.03125 14.28125 20.914062 14.28125 20.769531 C 14.28125 20.628906 14.332031 20.511719 14.429688 20.410156 L 21.683594 13.15625 C 21.785156 13.058594 21.902344 13.007812 22.046875 13.007812 C 22.1875 13.007812 22.308594 13.058594 22.40625 13.15625 L 27.484375 18.234375 C 27.582031 18.335938 27.632812 18.453125 27.632812 18.59375 C 27.632812 18.734375 27.585938 18.855469 27.484375 18.957031 L 20.230469 26.210938 C 20.132812 26.3125 20.011719 26.363281 19.867188 26.363281 Z M 15.519531 20.773438 L 19.867188 25.125 L 26.398438 18.59375 L 22.027344 14.246094 Z M 15.519531 20.773438 " fill-opacity="1" fill-rule="nonzero"/><path fill="#0db75f" d="M 12.164062 28.992188 C 12.082031 28.992188 12.003906 28.972656 11.929688 28.933594 C 11.855469 28.894531 11.792969 28.84375 11.746094 28.773438 C 11.699219 28.707031 11.667969 28.632812 11.65625 28.550781 C 11.644531 28.46875 11.652344 28.386719 11.679688 28.308594 L 14.308594 20.613281 C 14.335938 20.53125 14.382812 20.460938 14.449219 20.402344 C 14.515625 20.34375 14.589844 20.304688 14.675781 20.285156 C 14.761719 20.265625 14.847656 20.265625 14.933594 20.289062 C 15.019531 20.316406 15.089844 20.359375 15.152344 20.421875 L 20.230469 25.5 C 20.367188 25.632812 20.414062 25.789062 20.371094 25.976562 C 20.328125 26.160156 20.214844 26.28125 20.035156 26.34375 L 12.34375 28.972656 C 12.285156 28.988281 12.222656 28.996094 12.164062 28.992188 Z M 15.011719 21.71875 L 12.988281 27.652344 L 18.949219 25.632812 Z M 15.011719 21.71875 " fill-opacity="1" fill-rule="nonzero"/><path fill="#0db75f" d="M 12.164062 28.992188 C 12.082031 28.992188 12.003906 28.972656 11.929688 28.933594 C 11.855469 28.894531 11.792969 28.84375 11.746094 28.773438 C 11.699219 28.707031 11.667969 28.632812 11.65625 28.550781 C 11.644531 28.46875 11.652344 28.386719 11.679688 28.308594 L 12.820312 24.953125 C 12.859375 24.839844 12.929688 24.746094 13.035156 24.683594 C 13.140625 24.617188 13.253906 24.59375 13.375 24.609375 C 14.066406 24.699219 14.660156 24.992188 15.152344 25.488281 C 15.644531 25.984375 15.9375 26.574219 16.03125 27.269531 C 16.046875 27.390625 16.023438 27.503906 15.957031 27.605469 C 15.894531 27.710938 15.804688 27.78125 15.6875 27.820312 L 12.332031 28.960938 C 12.277344 28.980469 12.222656 28.992188 12.164062 28.992188 Z M 13.644531 25.722656 L 12.988281 27.652344 L 14.917969 26.996094 C 14.699219 26.363281 14.277344 25.941406 13.644531 25.722656 Z M 13.644531 25.722656 " fill-opacity="1" fill-rule="nonzero"/><g clip-path="url(#547afa2f34)"><path fill="#0db75f" d="M 27.121094 19.324219 L 21.320312 13.515625 L 23.136719 11.707031 C 23.28125 11.566406 23.449219 11.457031 23.636719 11.382812 C 23.824219 11.308594 24.019531 11.269531 24.222656 11.269531 C 24.425781 11.269531 24.621094 11.308594 24.808594 11.382812 C 24.996094 11.457031 25.164062 11.566406 25.308594 11.707031 L 28.9375 15.332031 C 29.082031 15.476562 29.191406 15.640625 29.269531 15.832031 C 29.347656 16.019531 29.386719 16.214844 29.386719 16.417969 C 29.386719 16.621094 29.347656 16.820312 29.269531 17.007812 C 29.191406 17.195312 29.082031 17.363281 28.9375 17.507812 Z M 22.769531 13.515625 L 27.121094 17.871094 L 28.214844 16.785156 C 28.3125 16.683594 28.363281 16.5625 28.363281 16.417969 C 28.363281 16.277344 28.3125 16.15625 28.214844 16.054688 L 24.59375 12.429688 C 24.492188 12.328125 24.371094 12.28125 24.230469 12.28125 C 24.089844 12.28125 23.96875 12.328125 23.867188 12.429688 Z M 22.769531 13.515625 " fill-opacity="1" fill-rule="nonzero"/></g><path fill="#0db75f" d="M 19.867188 26.363281 C 19.726562 26.363281 19.605469 26.3125 19.503906 26.210938 L 18.058594 24.765625 C 17.957031 24.664062 17.90625 24.542969 17.90625 24.402344 C 17.90625 24.257812 17.957031 24.136719 18.058594 24.035156 L 25.308594 16.785156 C 25.410156 16.683594 25.53125 16.632812 25.671875 16.632812 C 25.8125 16.632812 25.933594 16.683594 26.035156 16.785156 L 27.484375 18.234375 C 27.582031 18.335938 27.632812 18.453125 27.632812 18.59375 C 27.632812 18.734375 27.585938 18.855469 27.484375 18.957031 L 20.230469 26.210938 C 20.132812 26.3125 20.011719 26.363281 19.867188 26.363281 Z M 19.144531 24.402344 L 19.867188 25.125 L 26.398438 18.59375 L 25.675781 17.871094 Z M 19.144531 24.402344 " fill-opacity="1" fill-rule="nonzero"/><path fill="#0db75f" d="M 16.242188 22.738281 C 16.097656 22.742188 15.976562 22.695312 15.871094 22.59375 L 14.425781 21.144531 C 14.324219 21.042969 14.277344 20.921875 14.277344 20.78125 C 14.277344 20.640625 14.324219 20.519531 14.425781 20.421875 L 21.683594 13.15625 C 21.785156 13.058594 21.902344 13.007812 22.046875 13.007812 C 22.1875 13.007812 22.308594 13.058594 22.40625 13.15625 L 23.859375 14.609375 C 23.957031 14.707031 24.007812 14.828125 24.007812 14.96875 C 24.007812 15.109375 23.957031 15.230469 23.859375 15.332031 L 16.605469 22.59375 C 16.503906 22.691406 16.382812 22.742188 16.242188 22.738281 Z M 15.519531 20.773438 L 16.242188 21.496094 L 22.769531 14.96875 L 22.027344 14.246094 Z M 15.519531 20.773438 " fill-opacity="1" fill-rule="nonzero"/><g clip-path="url(#5f6c34586d)"><path fill="#0db75f" d="M 10.230469 28.75 L 0.996094 28.75 C 0.855469 28.75 0.734375 28.699219 0.632812 28.601562 C 0.535156 28.5 0.484375 28.378906 0.484375 28.238281 L 0.484375 25.160156 C 0.484375 25.019531 0.535156 24.898438 0.632812 24.796875 C 0.734375 24.695312 0.855469 24.648438 0.996094 24.648438 L 5.613281 24.648438 L 5.613281 22.59375 L 0.996094 22.59375 C 0.855469 22.59375 0.734375 22.542969 0.632812 22.445312 C 0.535156 22.34375 0.484375 22.222656 0.484375 22.082031 L 0.484375 19.003906 C 0.484375 18.863281 0.535156 18.742188 0.632812 18.640625 C 0.734375 18.542969 0.855469 18.492188 0.996094 18.492188 L 8.691406 18.492188 L 8.691406 16.953125 C 8.691406 16.8125 8.742188 16.691406 8.839844 16.589844 C 8.941406 16.488281 9.0625 16.441406 9.203125 16.441406 C 9.34375 16.441406 9.464844 16.488281 9.566406 16.589844 C 9.667969 16.691406 9.714844 16.8125 9.714844 16.953125 L 9.714844 19.003906 C 9.714844 19.144531 9.667969 19.265625 9.566406 19.367188 C 9.464844 19.46875 9.34375 19.515625 9.203125 19.515625 L 1.507812 19.515625 L 1.507812 21.570312 L 6.125 21.570312 C 6.269531 21.570312 6.390625 21.617188 6.488281 21.71875 C 6.589844 21.820312 6.640625 21.941406 6.640625 22.082031 L 6.640625 25.160156 C 6.640625 25.300781 6.589844 25.421875 6.488281 25.523438 C 6.390625 25.621094 6.269531 25.671875 6.125 25.671875 L 1.507812 25.671875 L 1.507812 27.722656 L 10.230469 27.722656 C 10.371094 27.722656 10.492188 27.773438 10.59375 27.875 C 10.691406 27.976562 10.742188 28.09375 10.742188 28.238281 C 10.742188 28.378906 10.691406 28.5 10.59375 28.601562 C 10.492188 28.699219 10.371094 28.75 10.230469 28.75 Z M 10.230469 28.75 " fill-opacity="1" fill-rule="nonzero"/></g><path fill="#0db75f" d="M 11.253906 13.363281 L 7.152344 13.363281 C 7.011719 13.363281 6.890625 13.3125 6.789062 13.210938 C 6.6875 13.113281 6.640625 12.992188 6.640625 12.847656 L 6.640625 11.824219 C 6.636719 11.652344 6.566406 11.515625 6.429688 11.414062 C 6.125 11.179688 5.855469 10.914062 5.617188 10.617188 C 5.378906 10.316406 5.183594 9.996094 5.027344 9.648438 C 4.867188 9.300781 4.757812 8.9375 4.6875 8.5625 C 4.621094 8.1875 4.601562 7.808594 4.625 7.425781 C 4.652344 7.046875 4.726562 6.675781 4.84375 6.3125 C 4.960938 5.949219 5.125 5.605469 5.328125 5.28125 C 5.53125 4.960938 5.769531 4.667969 6.046875 4.402344 C 6.324219 4.140625 6.628906 3.914062 6.960938 3.726562 C 7.292969 3.539062 7.640625 3.394531 8.011719 3.292969 C 8.378906 3.191406 8.753906 3.136719 9.132812 3.128906 C 9.515625 3.121094 9.894531 3.160156 10.265625 3.246094 C 10.636719 3.332031 10.992188 3.460938 11.332031 3.632812 C 11.671875 3.808594 11.984375 4.019531 12.273438 4.273438 C 12.5625 4.523438 12.8125 4.804688 13.03125 5.121094 C 13.246094 5.433594 13.421875 5.769531 13.554688 6.128906 C 13.691406 6.484375 13.777344 6.851562 13.820312 7.230469 C 13.90625 8.039062 13.785156 8.816406 13.460938 9.558594 C 13.136719 10.304688 12.648438 10.921875 12 11.40625 C 11.863281 11.511719 11.792969 11.648438 11.792969 11.816406 L 11.792969 12.84375 C 11.796875 12.992188 11.742188 13.117188 11.636719 13.21875 C 11.53125 13.320312 11.402344 13.371094 11.253906 13.363281 Z M 7.664062 12.335938 L 10.742188 12.335938 L 10.742188 11.824219 C 10.746094 11.3125 10.949219 10.902344 11.359375 10.597656 C 11.589844 10.425781 11.792969 10.226562 11.976562 10.003906 C 12.160156 9.78125 12.3125 9.542969 12.4375 9.28125 C 12.5625 9.023438 12.65625 8.75 12.714844 8.46875 C 12.773438 8.1875 12.800781 7.90625 12.789062 7.617188 C 12.78125 7.328125 12.738281 7.046875 12.664062 6.769531 C 12.585938 6.492188 12.476562 6.226562 12.335938 5.976562 C 12.195312 5.726562 12.027344 5.492188 11.832031 5.285156 C 11.636719 5.074219 11.417969 4.886719 11.179688 4.730469 C 10.722656 4.429688 10.226562 4.242188 9.6875 4.167969 C 9.148438 4.089844 8.621094 4.136719 8.101562 4.304688 C 7.765625 4.40625 7.449219 4.558594 7.160156 4.757812 C 6.867188 4.953125 6.613281 5.191406 6.390625 5.464844 C 6.167969 5.738281 5.992188 6.039062 5.859375 6.367188 C 5.726562 6.691406 5.644531 7.03125 5.613281 7.382812 C 5.558594 8 5.660156 8.597656 5.910156 9.164062 C 6.164062 9.734375 6.539062 10.207031 7.035156 10.582031 C 7.453125 10.890625 7.664062 11.304688 7.664062 11.824219 Z M 7.664062 12.335938 " fill-opacity="1" fill-rule="nonzero"/><path fill="#0db75f" d="M 10.230469 15.414062 L 8.179688 15.414062 C 7.972656 15.414062 7.777344 15.375 7.589844 15.296875 C 7.402344 15.21875 7.234375 15.105469 7.089844 14.964844 C 6.945312 14.820312 6.835938 14.652344 6.757812 14.464844 C 6.679688 14.273438 6.640625 14.078125 6.640625 13.875 L 6.640625 12.847656 C 6.640625 12.707031 6.6875 12.585938 6.789062 12.488281 C 6.890625 12.386719 7.011719 12.335938 7.152344 12.335938 L 11.253906 12.335938 C 11.398438 12.335938 11.519531 12.386719 11.617188 12.488281 C 11.71875 12.585938 11.769531 12.707031 11.769531 12.847656 L 11.769531 13.875 C 11.769531 14.078125 11.730469 14.273438 11.652344 14.464844 C 11.574219 14.652344 11.460938 14.820312 11.316406 14.964844 C 11.171875 15.105469 11.007812 15.21875 10.820312 15.296875 C 10.628906 15.375 10.433594 15.414062 10.230469 15.414062 Z M 7.664062 13.363281 L 7.664062 13.875 C 7.664062 14.015625 7.714844 14.136719 7.816406 14.238281 C 7.914062 14.335938 8.035156 14.386719 8.179688 14.386719 L 10.230469 14.386719 C 10.371094 14.386719 10.492188 14.335938 10.59375 14.238281 C 10.691406 14.136719 10.742188 14.015625 10.742188 13.875 L 10.742188 13.363281 Z M 7.664062 13.363281 " fill-opacity="1" fill-rule="nonzero"/><path fill="#0db75f" d="M 9.203125 2.078125 C 9.0625 2.078125 8.941406 2.027344 8.839844 1.925781 C 8.742188 1.828125 8.691406 1.707031 8.691406 1.566406 L 8.691406 0.539062 C 8.691406 0.398438 8.742188 0.277344 8.839844 0.175781 C 8.941406 0.0742188 9.0625 0.0273438 9.203125 0.0273438 C 9.34375 0.0273438 9.464844 0.0742188 9.566406 0.175781 C 9.667969 0.277344 9.714844 0.398438 9.714844 0.539062 L 9.714844 1.566406 C 9.714844 1.707031 9.667969 1.828125 9.566406 1.925781 C 9.464844 2.027344 9.34375 2.078125 9.203125 2.078125 Z M 9.203125 2.078125 " fill-opacity="1" fill-rule="nonzero"/><path fill="#0db75f" d="M 4.847656 3.878906 C 4.710938 3.878906 4.589844 3.828125 4.488281 3.730469 L 3.761719 3.003906 C 3.660156 2.90625 3.609375 2.785156 3.609375 2.640625 C 3.609375 2.5 3.660156 2.378906 3.761719 2.277344 C 3.863281 2.175781 3.984375 2.125 4.125 2.125 C 4.269531 2.125 4.390625 2.175781 4.488281 2.277344 L 5.214844 3.003906 C 5.3125 3.105469 5.363281 3.226562 5.363281 3.367188 C 5.363281 3.507812 5.3125 3.628906 5.214844 3.730469 C 5.113281 3.828125 4.992188 3.878906 4.847656 3.878906 Z M 4.847656 3.878906 " fill-opacity="1" fill-rule="nonzero"/><path fill="#0db75f" d="M 3.046875 8.234375 L 2.023438 8.234375 C 1.882812 8.234375 1.761719 8.183594 1.660156 8.082031 C 1.558594 7.980469 1.507812 7.863281 1.507812 7.71875 C 1.507812 7.578125 1.558594 7.457031 1.660156 7.355469 C 1.761719 7.257812 1.882812 7.207031 2.023438 7.207031 L 3.046875 7.207031 C 3.191406 7.207031 3.3125 7.257812 3.410156 7.355469 C 3.511719 7.457031 3.5625 7.578125 3.5625 7.71875 C 3.5625 7.863281 3.511719 7.980469 3.410156 8.082031 C 3.3125 8.183594 3.191406 8.234375 3.046875 8.234375 Z M 3.046875 8.234375 " fill-opacity="1" fill-rule="nonzero"/><path fill="#0db75f" d="M 4.125 13.3125 C 3.984375 13.3125 3.863281 13.261719 3.761719 13.160156 C 3.660156 13.0625 3.609375 12.941406 3.609375 12.796875 C 3.609375 12.65625 3.660156 12.535156 3.761719 12.433594 L 4.488281 11.710938 C 4.585938 11.597656 4.710938 11.539062 4.859375 11.53125 C 5.007812 11.527344 5.136719 11.574219 5.242188 11.679688 C 5.347656 11.785156 5.398438 11.914062 5.390625 12.0625 C 5.386719 12.214844 5.328125 12.335938 5.214844 12.433594 L 4.488281 13.160156 C 4.390625 13.261719 4.269531 13.3125 4.125 13.3125 Z M 4.125 13.3125 " fill-opacity="1" fill-rule="nonzero"/><path fill="#0db75f" d="M 14.28125 13.3125 C 14.140625 13.3125 14.019531 13.261719 13.917969 13.160156 L 13.195312 12.433594 C 13.082031 12.335938 13.019531 12.214844 13.015625 12.0625 C 13.011719 11.914062 13.058594 11.785156 13.164062 11.679688 C 13.269531 11.574219 13.398438 11.527344 13.546875 11.53125 C 13.695312 11.539062 13.820312 11.597656 13.917969 11.710938 L 14.644531 12.433594 C 14.746094 12.535156 14.796875 12.65625 14.796875 12.796875 C 14.796875 12.941406 14.746094 13.0625 14.644531 13.160156 C 14.546875 13.261719 14.425781 13.3125 14.28125 13.3125 Z M 14.28125 13.3125 " fill-opacity="1" fill-rule="nonzero"/><path fill="#0db75f" d="M 16.386719 8.234375 L 15.359375 8.234375 C 15.21875 8.234375 15.097656 8.183594 14.996094 8.082031 C 14.894531 7.980469 14.847656 7.863281 14.847656 7.71875 C 14.847656 7.578125 14.894531 7.457031 14.996094 7.355469 C 15.097656 7.257812 15.21875 7.207031 15.359375 7.207031 L 16.386719 7.207031 C 16.527344 7.207031 16.648438 7.257812 16.746094 7.355469 C 16.847656 7.457031 16.898438 7.578125 16.898438 7.71875 C 16.898438 7.863281 16.847656 7.980469 16.746094 8.082031 C 16.648438 8.183594 16.527344 8.234375 16.386719 8.234375 Z M 16.386719 8.234375 " fill-opacity="1" fill-rule="nonzero"/><path fill="#0db75f" d="M 13.558594 3.878906 C 13.417969 3.878906 13.296875 3.828125 13.195312 3.730469 C 13.09375 3.628906 13.046875 3.507812 13.046875 3.367188 C 13.046875 3.226562 13.09375 3.105469 13.195312 3.003906 L 13.917969 2.277344 C 14.019531 2.175781 14.140625 2.125 14.28125 2.125 C 14.425781 2.125 14.546875 2.175781 14.644531 2.277344 C 14.746094 2.378906 14.796875 2.5 14.796875 2.640625 C 14.796875 2.785156 14.746094 2.90625 14.644531 3.003906 L 13.917969 3.730469 C 13.816406 3.828125 13.699219 3.878906 13.558594 3.878906 Z M 13.558594 3.878906 " fill-opacity="1" fill-rule="nonzero"/><path fill="#0db75f" d="M 11.253906 8.234375 C 11.113281 8.234375 10.992188 8.183594 10.894531 8.082031 C 10.792969 7.980469 10.742188 7.863281 10.742188 7.71875 C 10.742188 7.515625 10.703125 7.320312 10.625 7.128906 C 10.546875 6.941406 10.4375 6.777344 10.292969 6.632812 C 10.148438 6.488281 9.980469 6.375 9.792969 6.296875 C 9.605469 6.21875 9.40625 6.179688 9.203125 6.179688 C 9.0625 6.179688 8.941406 6.128906 8.839844 6.03125 C 8.742188 5.929688 8.691406 5.808594 8.691406 5.667969 C 8.691406 5.527344 8.742188 5.40625 8.839844 5.304688 C 8.941406 5.207031 9.0625 5.15625 9.203125 5.15625 C 9.542969 5.15625 9.871094 5.21875 10.183594 5.351562 C 10.5 5.480469 10.777344 5.664062 11.015625 5.90625 C 11.257812 6.148438 11.441406 6.425781 11.574219 6.738281 C 11.703125 7.050781 11.769531 7.378906 11.769531 7.71875 C 11.769531 7.863281 11.71875 7.980469 11.617188 8.082031 C 11.519531 8.183594 11.398438 8.234375 11.253906 8.234375 Z M 11.253906 8.234375 " fill-opacity="1" fill-rule="nonzero"/></svg>